<?xml version="1.0" encoding="UTF-8" standalone="no"?>
<svg
   class="svglite"
   width="576.00pt"
   height="403.20pt"
   viewBox="0 0 576.00 403.20"
   version="1.1"
   id="svg172"
   sodipodi:docname="Figure_3.svg"
   inkscape:version="1.3.2 (091e20e, 2023-11-25)"
   inkscape:export-filename="Figure_3.png"
   inkscape:export-xdpi="600"
   inkscape:export-ydpi="600"
   xmlns:inkscape="http://www.inkscape.org/namespaces/inkscape"
   xmlns:sodipodi="http://sodipodi.sourceforge.net/DTD/sodipodi-0.dtd"
   xmlns="http://www.w3.org/2000/svg"
   xmlns:svg="http://www.w3.org/2000/svg">
  <sodipodi:namedview
     id="namedview172"
     pagecolor="#ffffff"
     bordercolor="#000000"
     borderopacity="0.25"
     inkscape:showpageshadow="2"
     inkscape:pageopacity="0.0"
     inkscape:pagecheckerboard="0"
     inkscape:deskcolor="#d1d1d1"
     inkscape:document-units="pt"
     inkscape:zoom="1.2416458"
     inkscape:cx="384.57022"
     inkscape:cy="268.99781"
     inkscape:window-width="1512"
     inkscape:window-height="945"
     inkscape:window-x="0"
     inkscape:window-y="37"
     inkscape:window-maximized="0"
     inkscape:current-layer="svg172" />
  <defs
     id="defs1">
    <style
       type="text/css"
       id="style1"><![CDATA[
    .svglite line, .svglite polyline, .svglite polygon, .svglite path, .svglite rect, .svglite circle {
      fill: none;
      stroke: #000000;
      stroke-linecap: round;
      stroke-linejoin: round;
      stroke-miterlimit: 10.00;
    }
    .svglite text {
      white-space: pre;
    }
  ]]></style>
  </defs>
  <rect
     width="100%"
     height="100%"
     style="stroke: none; fill: none;"
     id="rect1" />
  <defs
     id="defs2">
    <clipPath
       id="cpMC4wMHw1NzYuMDB8MC4wMHw0MDMuMjA=">
      <rect
         x="0.00"
         y="0.00"
         width="576.00"
         height="403.20"
         id="rect2" />
    </clipPath>
  </defs>
  <g
     clip-path="url(#cpMC4wMHw1NzYuMDB8MC4wMHw0MDMuMjA=)"
     id="g2" />
  <defs
     id="defs3">
    <clipPath
       id="cpMC4wMHwyODguMDB8MC4wMHwyMDEuNjA=">
      <rect
         x="0.00"
         y="0.000000000000057"
         width="288.00"
         height="201.60"
         id="rect3" />
    </clipPath>
  </defs>
  <g
     clip-path="url(#cpMC4wMHwyODguMDB8MC4wMHwyMDEuNjA=)"
     id="g4">
    <rect
       x="-0.000000000000032"
       y="0.000000000000028"
       width="288.00"
       height="201.60"
       style="stroke-width: 1.07; stroke: #FFFFFF; fill: #FFFFFF;"
       id="rect4" />
  </g>
  <g
     clip-path="url(#cpMC4wMHw1NzYuMDB8MC4wMHw0MDMuMjA=)"
     id="g5" />
  <defs
     id="defs5">
    <clipPath
       id="cpNTYuMjR8MjgyLjUyfDUuNDh8MTY5Ljcw">
      <rect
         x="56.24"
         y="5.48"
         width="226.28"
         height="164.22"
         id="rect5" />
    </clipPath>
  </defs>
  <g
     clip-path="url(#cpNTYuMjR8MjgyLjUyfDUuNDh8MTY5Ljcw)"
     id="g26">
    <rect
       x="56.24"
       y="5.48"
       width="226.28"
       height="164.22"
       style="stroke-width: 1.07; stroke: none; fill: #FFFFFF;"
       id="rect6" />
    <polygon
       points="74.07,142.23 76.18,140.81 78.28,139.38 80.39,137.96 82.49,136.53 84.59,135.10 86.70,133.66 88.80,132.23 90.91,130.79 93.01,129.35 95.12,127.90 97.22,126.46 99.32,125.01 101.43,123.55 103.53,122.09 105.64,120.63 107.74,119.16 109.85,117.69 111.95,116.22 114.05,114.74 116.16,113.25 118.26,111.76 120.37,110.26 122.47,108.76 124.58,107.24 126.68,105.73 128.78,104.20 130.89,102.67 132.99,101.13 135.10,99.58 137.20,98.03 139.31,96.46 141.41,94.89 143.51,93.30 145.62,91.71 147.72,90.11 149.83,88.50 151.93,86.88 154.04,85.26 156.14,83.62 158.24,81.97 160.35,80.32 162.45,78.66 164.56,76.99 166.66,75.31 168.77,73.62 170.87,71.93 172.97,70.22 175.08,68.52 177.18,66.80 179.29,65.08 181.39,63.35 183.50,61.62 185.60,59.88 187.70,58.14 189.81,56.39 191.91,54.64 194.02,52.88 196.12,51.12 198.23,49.36 200.33,47.59 202.43,45.82 204.54,44.04 206.64,42.27 208.75,40.49 210.85,38.70 212.96,36.92 215.06,35.13 217.16,33.34 219.27,31.55 221.37,29.75 223.48,27.96 225.58,26.16 227.69,24.36 229.79,22.56 231.89,20.76 234.00,18.95 236.10,17.15 238.21,15.34 240.31,13.53 240.31,36.65 238.21,38.06 236.10,39.47 234.00,40.89 231.89,42.30 229.79,43.72 227.69,45.14 225.58,46.55 223.48,47.98 221.37,49.40 219.27,50.82 217.16,52.25 215.06,53.68 212.96,55.11 210.85,56.54 208.75,57.98 206.64,59.42 204.54,60.86 202.43,62.30 200.33,63.75 198.23,65.20 196.12,66.65 194.02,68.11 191.91,69.58 189.81,71.04 187.70,72.51 185.60,73.99 183.50,75.47 181.39,76.95 179.29,78.45 177.18,79.94 175.08,81.45 172.97,82.96 170.87,84.48 168.77,86.00 166.66,87.53 164.56,89.07 162.45,90.62 160.35,92.18 158.24,93.74 156.14,95.31 154.04,96.89 151.93,98.49 149.83,100.09 147.72,101.69 145.62,103.31 143.51,104.94 141.41,106.58 139.31,108.22 137.20,109.88 135.10,111.54 132.99,113.21 130.89,114.89 128.78,116.57 126.68,118.27 124.58,119.97 122.47,121.68 120.37,123.39 118.26,125.11 116.16,126.84 114.05,128.57 111.95,130.31 109.85,132.05 107.74,133.80 105.64,135.55 103.53,137.31 101.43,139.07 99.32,140.83 97.22,142.60 95.12,144.37 93.01,146.15 90.91,147.92 88.80,149.70 86.70,151.49 84.59,153.27 82.49,155.06 80.39,156.85 78.28,158.64 76.18,160.44 74.07,162.23 "
       style="stroke-width: 0.00; stroke: none; stroke-linecap: butt; fill: #999999; fill-opacity: 0.40;"
       id="polygon6" />
    <polyline
       points="74.07,142.23 76.18,140.81 78.28,139.38 80.39,137.96 82.49,136.53 84.59,135.10 86.70,133.66 88.80,132.23 90.91,130.79 93.01,129.35 95.12,127.90 97.22,126.46 99.32,125.01 101.43,123.55 103.53,122.09 105.64,120.63 107.74,119.16 109.85,117.69 111.95,116.22 114.05,114.74 116.16,113.25 118.26,111.76 120.37,110.26 122.47,108.76 124.58,107.24 126.68,105.73 128.78,104.20 130.89,102.67 132.99,101.13 135.10,99.58 137.20,98.03 139.31,96.46 141.41,94.89 143.51,93.30 145.62,91.71 147.72,90.11 149.83,88.50 151.93,86.88 154.04,85.26 156.14,83.62 158.24,81.97 160.35,80.32 162.45,78.66 164.56,76.99 166.66,75.31 168.77,73.62 170.87,71.93 172.97,70.22 175.08,68.52 177.18,66.80 179.29,65.08 181.39,63.35 183.50,61.62 185.60,59.88 187.70,58.14 189.81,56.39 191.91,54.64 194.02,52.88 196.12,51.12 198.23,49.36 200.33,47.59 202.43,45.82 204.54,44.04 206.64,42.27 208.75,40.49 210.85,38.70 212.96,36.92 215.06,35.13 217.16,33.34 219.27,31.55 221.37,29.75 223.48,27.96 225.58,26.16 227.69,24.36 229.79,22.56 231.89,20.76 234.00,18.95 236.10,17.15 238.21,15.34 240.31,13.53 "
       style="stroke-width: 2.13; stroke: none; stroke-linecap: butt;"
       id="polyline6" />
    <polyline
       points="240.31,36.65 238.21,38.06 236.10,39.47 234.00,40.89 231.89,42.30 229.79,43.72 227.69,45.14 225.58,46.55 223.48,47.98 221.37,49.40 219.27,50.82 217.16,52.25 215.06,53.68 212.96,55.11 210.85,56.54 208.75,57.98 206.64,59.42 204.54,60.86 202.43,62.30 200.33,63.75 198.23,65.20 196.12,66.65 194.02,68.11 191.91,69.58 189.81,71.04 187.70,72.51 185.60,73.99 183.50,75.47 181.39,76.95 179.29,78.45 177.18,79.94 175.08,81.45 172.97,82.96 170.87,84.48 168.77,86.00 166.66,87.53 164.56,89.07 162.45,90.62 160.35,92.18 158.24,93.74 156.14,95.31 154.04,96.89 151.93,98.49 149.83,100.09 147.72,101.69 145.62,103.31 143.51,104.94 141.41,106.58 139.31,108.22 137.20,109.88 135.10,111.54 132.99,113.21 130.89,114.89 128.78,116.57 126.68,118.27 124.58,119.97 122.47,121.68 120.37,123.39 118.26,125.11 116.16,126.84 114.05,128.57 111.95,130.31 109.85,132.05 107.74,133.80 105.64,135.55 103.53,137.31 101.43,139.07 99.32,140.83 97.22,142.60 95.12,144.37 93.01,146.15 90.91,147.92 88.80,149.70 86.70,151.49 84.59,153.27 82.49,155.06 80.39,156.85 78.28,158.64 76.18,160.44 74.07,162.23 "
       style="stroke-width: 2.13; stroke: none; stroke-linecap: butt;"
       id="polyline7" />
    <polyline
       points="74.07,152.23 76.18,150.62 78.28,149.01 80.39,147.40 82.49,145.79 84.59,144.18 86.70,142.58 88.80,140.97 90.91,139.36 93.01,137.75 95.12,136.14 97.22,134.53 99.32,132.92 101.43,131.31 103.53,129.70 105.64,128.09 107.74,126.48 109.85,124.87 111.95,123.26 114.05,121.65 116.16,120.04 118.26,118.43 120.37,116.83 122.47,115.22 124.58,113.61 126.68,112.00 128.78,110.39 130.89,108.78 132.99,107.17 135.10,105.56 137.20,103.95 139.31,102.34 141.41,100.73 143.51,99.12 145.62,97.51 147.72,95.90 149.83,94.29 151.93,92.69 154.04,91.08 156.14,89.47 158.24,87.86 160.35,86.25 162.45,84.64 164.56,83.03 166.66,81.42 168.77,79.81 170.87,78.20 172.97,76.59 175.08,74.98 177.18,73.37 179.29,71.76 181.39,70.15 183.50,68.54 185.60,66.94 187.70,65.33 189.81,63.72 191.91,62.11 194.02,60.50 196.12,58.89 198.23,57.28 200.33,55.67 202.43,54.06 204.54,52.45 206.64,50.84 208.75,49.23 210.85,47.62 212.96,46.01 215.06,44.40 217.16,42.79 219.27,41.19 221.37,39.58 223.48,37.97 225.58,36.36 227.69,34.75 229.79,33.14 231.89,31.53 234.00,29.92 236.10,28.31 238.21,26.70 240.31,25.09 "
       style="stroke-width: 2.13; stroke: #3366FF; stroke-linecap: butt;"
       id="polyline8" />
    <circle
       cx="74.07"
       cy="140.34"
       r="1.95"
       style="stroke-width: 0.71; fill: #000000;"
       id="circle8" />
    <circle
       cx="87.38"
       cy="138.29"
       r="1.95"
       style="stroke-width: 0.71; fill: #000000;"
       id="circle9" />
    <circle
       cx="101.76"
       cy="130.85"
       r="1.95"
       style="stroke-width: 0.71; fill: #000000;"
       id="circle10" />
    <circle
       cx="117.28"
       cy="123.38"
       r="1.95"
       style="stroke-width: 0.71; fill: #000000;"
       id="circle11" />
    <circle
       cx="134.05"
       cy="113.17"
       r="1.95"
       style="stroke-width: 0.71; fill: #000000;"
       id="circle12" />
    <circle
       cx="152.16"
       cy="100.65"
       r="1.95"
       style="stroke-width: 0.71; fill: #000000;"
       id="circle13" />
    <circle
       cx="171.72"
       cy="85.08"
       r="1.95"
       style="stroke-width: 0.71; fill: #000000;"
       id="circle14" />
    <circle
       cx="192.85"
       cy="64.65"
       r="1.95"
       style="stroke-width: 0.71; fill: #000000;"
       id="circle15" />
    <circle
       cx="215.67"
       cy="42.02"
       r="1.95"
       style="stroke-width: 0.71; fill: #000000;"
       id="circle16" />
    <circle
       cx="240.31"
       cy="12.94"
       r="1.95"
       style="stroke-width: 0.71; fill: #000000;"
       id="circle17" />
    <text
       x="66.53"
       y="24.73"
       style="font-size: 11.04px; font-style: italic; font-family: &quot;Arial&quot;;"
       textLength="5.52px"
       lengthAdjust="spacingAndGlyphs"
       id="text17">y</text>
    <text
       x="72.04"
       y="24.73"
       style="font-size: 11.04px; font-family: &quot;Symbol&quot;;"
       textLength="2.76px"
       lengthAdjust="spacingAndGlyphs"
       id="text18" />
    <text
       x="74.80"
       y="24.73"
       style="font-size: 11.04px; font-family: &quot;Arial&quot;;"
       textLength="6.44px"
       lengthAdjust="spacingAndGlyphs"
       id="text19">=</text>
    <text
       x="81.24"
       y="24.73"
       style="font-size: 11.04px; font-family: &quot;Symbol&quot;;"
       textLength="2.76px"
       lengthAdjust="spacingAndGlyphs"
       id="text20" />
    <text
       x="84.00"
       y="24.73"
       style="font-size: 11.04px; font-family: &quot;Symbol&quot;;"
       textLength="6.06px"
       lengthAdjust="spacingAndGlyphs"
       id="text21">−</text>
    <text
       x="91.59"
       y="24.73"
       style="font-size: 11.04px; font-family: &quot;Arial&quot;;"
       textLength="15.34px"
       lengthAdjust="spacingAndGlyphs"
       id="text22">6.4</text>
    <text
       x="108.96"
       y="24.73"
       style="font-size: 11.04px; font-family: &quot;Symbol&quot;;"
       textLength="6.06px"
       lengthAdjust="spacingAndGlyphs"
       id="text23">+</text>
    <text
       x="117.06"
       y="24.73"
       style="font-size: 11.04px; font-family: &quot;Arial&quot;;"
       textLength="21.47px"
       lengthAdjust="spacingAndGlyphs"
       id="text24">0.24</text>
    <text
       x="138.53"
       y="24.73"
       style="font-size: 11.04px; font-family: &quot;Symbol&quot;;"
       textLength="2.76px"
       lengthAdjust="spacingAndGlyphs"
       id="text25" />
    <text
       x="141.29"
       y="24.73"
       style="font-size: 11.04px; font-style: italic; font-family: &quot;Arial&quot;;"
       textLength="5.52px"
       lengthAdjust="spacingAndGlyphs"
       id="text26">x</text>
  </g>
  <g
     clip-path="url(#cpMC4wMHw1NzYuMDB8MC4wMHw0MDMuMjA=)"
     id="g44">
    <polyline
       points="56.24,169.70 56.24,5.48 "
       style="stroke-width: 1.07; stroke-linecap: butt;"
       id="polyline26" />
    <text
       x="51.31"
       y="160.67"
       text-anchor="end"
       style="font-size: 8.80px;fill: #4D4D4D; font-family: &quot;Arial&quot;;"
       textLength="4.90px"
       lengthAdjust="spacingAndGlyphs"
       id="text27">0</text>
    <text
       x="51.31"
       y="122.49"
       text-anchor="end"
       style="font-size: 8.80px;fill: #4D4D4D; font-family: &quot;Arial&quot;;"
       textLength="4.90px"
       lengthAdjust="spacingAndGlyphs"
       id="text28">2</text>
    <text
       x="51.31"
       y="84.32"
       text-anchor="end"
       style="font-size: 8.80px;fill: #4D4D4D; font-family: &quot;Arial&quot;;"
       textLength="4.90px"
       lengthAdjust="spacingAndGlyphs"
       id="text29">4</text>
    <text
       x="51.31"
       y="46.14"
       text-anchor="end"
       style="font-size: 8.80px;fill: #4D4D4D; font-family: &quot;Arial&quot;;"
       textLength="4.90px"
       lengthAdjust="spacingAndGlyphs"
       id="text30">6</text>
    <polyline
       points="53.50,157.52 56.24,157.52 "
       style="stroke-width: 1.07; stroke: #333333; stroke-linecap: butt;"
       id="polyline30" />
    <polyline
       points="53.50,119.34 56.24,119.34 "
       style="stroke-width: 1.07; stroke: #333333; stroke-linecap: butt;"
       id="polyline31" />
    <polyline
       points="53.50,81.16 56.24,81.16 "
       style="stroke-width: 1.07; stroke: #333333; stroke-linecap: butt;"
       id="polyline32" />
    <polyline
       points="53.50,42.99 56.24,42.99 "
       style="stroke-width: 1.07; stroke: #333333; stroke-linecap: butt;"
       id="polyline33" />
    <polyline
       points="56.24,169.70 282.52,169.70 "
       style="stroke-width: 1.07; stroke-linecap: butt;"
       id="polyline34" />
    <polyline
       points="84.16,172.44 84.16,169.70 "
       style="stroke-width: 1.07; stroke: #333333; stroke-linecap: butt;"
       id="polyline35" />
    <polyline
       points="142.93,172.44 142.93,169.70 "
       style="stroke-width: 1.07; stroke: #333333; stroke-linecap: butt;"
       id="polyline36" />
    <polyline
       points="201.71,172.44 201.71,169.70 "
       style="stroke-width: 1.07; stroke: #333333; stroke-linecap: butt;"
       id="polyline37" />
    <polyline
       points="260.48,172.44 260.48,169.70 "
       style="stroke-width: 1.07; stroke: #333333; stroke-linecap: butt;"
       id="polyline38" />
    <text
       x="84.16"
       y="180.93"
       text-anchor="middle"
       style="font-size: 8.80px;fill: #4D4D4D; font-family: &quot;Arial&quot;;"
       textLength="9.79px"
       lengthAdjust="spacingAndGlyphs"
       id="text38">30</text>
    <text
       x="142.93"
       y="180.93"
       text-anchor="middle"
       style="font-size: 8.80px;fill: #4D4D4D; font-family: &quot;Arial&quot;;"
       textLength="9.79px"
       lengthAdjust="spacingAndGlyphs"
       id="text39">40</text>
    <text
       x="201.71"
       y="180.93"
       text-anchor="middle"
       style="font-size: 8.80px;fill: #4D4D4D; font-family: &quot;Arial&quot;;"
       textLength="9.79px"
       lengthAdjust="spacingAndGlyphs"
       id="text40">50</text>
    <text
       x="260.48"
       y="180.93"
       text-anchor="middle"
       style="font-size: 8.80px;fill: #4D4D4D; font-family: &quot;Arial&quot;;"
       textLength="9.79px"
       lengthAdjust="spacingAndGlyphs"
       id="text41">60</text>
    <text
       x="169.38"
       y="193.7"
       text-anchor="middle"
       style="font-size:11px;font-family:Arial"
       textLength="90.150002"
       lengthAdjust="spacingAndGlyphs"
       id="text42">Total [Mg<tspan
   style="font-size:65%;baseline-shift:super"
   id="tspan173">2+</tspan>] (mM)</text>
    <text
       transform="rotate(-90,50.48,37.11)"
       text-anchor="middle"
       style="font-size:11px;font-family:Arial"
       textLength="88.32"
       lengthAdjust="spacingAndGlyphs"
       id="text43">Free [Mg<tspan
   style="font-size:65%;baseline-shift:super"
   id="tspan172">2+</tspan>] (mM)</text>
    <text
       x="5.05"
       y="15.11"
       style="font-size: 14.00px; font-weight: bold; font-family: &quot;Arial&quot;;"
       textLength="10.11px"
       lengthAdjust="spacingAndGlyphs"
       id="text44">A</text>
  </g>
  <defs
     id="defs44">
    <clipPath
       id="cpMjg4LjAwfDU3Ni4wMHwwLjAwfDIwMS42MA==">
      <rect
         x="288.00"
         y="0.000000000000057"
         width="288.00"
         height="201.60"
         id="rect44" />
    </clipPath>
  </defs>
  <g
     clip-path="url(#cpMjg4LjAwfDU3Ni4wMHwwLjAwfDIwMS42MA==)"
     id="g45">
    <rect
       x="288.00"
       y="0.000000000000028"
       width="288.00"
       height="201.60"
       style="stroke-width: 1.07; stroke: #FFFFFF; fill: #FFFFFF;"
       id="rect45" />
  </g>
  <g
     clip-path="url(#cpMC4wMHw1NzYuMDB8MC4wMHw0MDMuMjA=)"
     id="g46" />
  <defs
     id="defs46">
    <clipPath
       id="cpMzQ0LjI0fDU3MC41Mnw1LjQ4fDE2OS43MA==">
      <rect
         x="344.24"
         y="5.48"
         width="226.28"
         height="164.22"
         id="rect46" />
    </clipPath>
  </defs>
  <g
     clip-path="url(#cpMzQ0LjI0fDU3MC41Mnw1LjQ4fDE2OS43MA==)"
     id="g67">
    <rect
       x="344.24"
       y="5.48"
       width="226.28"
       height="164.22"
       style="stroke-width: 1.07; stroke: none; fill: #FFFFFF;"
       id="rect47" />
    <polygon
       points="359.13,154.61 361.24,152.90 363.34,151.19 365.45,149.48 367.55,147.77 369.66,146.05 371.76,144.34 373.86,142.62 375.97,140.91 378.07,139.19 380.18,137.47 382.28,135.75 384.39,134.03 386.49,132.30 388.59,130.58 390.70,128.85 392.80,127.13 394.91,125.40 397.01,123.67 399.12,121.93 401.22,120.20 403.32,118.46 405.43,116.72 407.53,114.98 409.64,113.24 411.74,111.49 413.85,109.74 415.95,107.99 418.05,106.23 420.16,104.48 422.26,102.71 424.37,100.95 426.47,99.18 428.58,97.41 430.68,95.63 432.78,93.86 434.89,92.07 436.99,90.29 439.10,88.50 441.20,86.71 443.31,84.91 445.41,83.11 447.51,81.31 449.62,79.51 451.72,77.70 453.83,75.89 455.93,74.07 458.04,72.26 460.14,70.44 462.24,68.61 464.35,66.79 466.45,64.96 468.56,63.14 470.66,61.30 472.77,59.47 474.87,57.64 476.97,55.80 479.08,53.96 481.18,52.12 483.29,50.28 485.39,48.44 487.50,46.60 489.60,44.75 491.70,42.91 493.81,41.06 495.91,39.21 498.02,37.36 500.12,35.51 502.23,33.66 504.33,31.81 506.43,29.96 508.54,28.11 510.64,26.25 512.75,24.40 514.85,22.54 516.96,20.69 519.06,18.83 521.16,16.98 523.27,15.12 525.37,13.26 525.37,22.07 523.27,23.77 521.16,25.48 519.06,27.19 516.96,28.90 514.85,30.60 512.75,32.31 510.64,34.02 508.54,35.73 506.43,37.44 504.33,39.15 502.23,40.87 500.12,42.58 498.02,44.29 495.91,46.01 493.81,47.72 491.70,49.44 489.60,51.16 487.50,52.88 485.39,54.60 483.29,56.32 481.18,58.04 479.08,59.76 476.97,61.49 474.87,63.22 472.77,64.95 470.66,66.68 468.56,68.41 466.45,70.14 464.35,71.88 462.24,73.62 460.14,75.36 458.04,77.11 455.93,78.85 453.83,80.60 451.72,82.35 449.62,84.11 447.51,85.87 445.41,87.63 443.31,89.39 441.20,91.16 439.10,92.93 436.99,94.71 434.89,96.49 432.78,98.27 430.68,100.05 428.58,101.84 426.47,103.63 424.37,105.43 422.26,107.23 420.16,109.03 418.05,110.83 415.95,112.64 413.85,114.45 411.74,116.27 409.64,118.08 407.53,119.90 405.43,121.73 403.32,123.55 401.22,125.38 399.12,127.20 397.01,129.04 394.91,130.87 392.80,132.70 390.70,134.54 388.59,136.38 386.49,138.22 384.39,140.06 382.28,141.90 380.18,143.74 378.07,145.59 375.97,147.43 373.86,149.28 371.76,151.13 369.66,152.98 367.55,154.83 365.45,156.68 363.34,158.53 361.24,160.38 359.13,162.23 "
       style="stroke-width: 0.00; stroke: none; stroke-linecap: butt; fill: #999999; fill-opacity: 0.40;"
       id="polygon47" />
    <polyline
       points="359.13,154.61 361.24,152.90 363.34,151.19 365.45,149.48 367.55,147.77 369.66,146.05 371.76,144.34 373.86,142.62 375.97,140.91 378.07,139.19 380.18,137.47 382.28,135.75 384.39,134.03 386.49,132.30 388.59,130.58 390.70,128.85 392.80,127.13 394.91,125.40 397.01,123.67 399.12,121.93 401.22,120.20 403.32,118.46 405.43,116.72 407.53,114.98 409.64,113.24 411.74,111.49 413.85,109.74 415.95,107.99 418.05,106.23 420.16,104.48 422.26,102.71 424.37,100.95 426.47,99.18 428.58,97.41 430.68,95.63 432.78,93.86 434.89,92.07 436.99,90.29 439.10,88.50 441.20,86.71 443.31,84.91 445.41,83.11 447.51,81.31 449.62,79.51 451.72,77.70 453.83,75.89 455.93,74.07 458.04,72.26 460.14,70.44 462.24,68.61 464.35,66.79 466.45,64.96 468.56,63.14 470.66,61.30 472.77,59.47 474.87,57.64 476.97,55.80 479.08,53.96 481.18,52.12 483.29,50.28 485.39,48.44 487.50,46.60 489.60,44.75 491.70,42.91 493.81,41.06 495.91,39.21 498.02,37.36 500.12,35.51 502.23,33.66 504.33,31.81 506.43,29.96 508.54,28.11 510.64,26.25 512.75,24.40 514.85,22.54 516.96,20.69 519.06,18.83 521.16,16.98 523.27,15.12 525.37,13.26 "
       style="stroke-width: 2.13; stroke: none; stroke-linecap: butt;"
       id="polyline47" />
    <polyline
       points="525.37,22.07 523.27,23.77 521.16,25.48 519.06,27.19 516.96,28.90 514.85,30.60 512.75,32.31 510.64,34.02 508.54,35.73 506.43,37.44 504.33,39.15 502.23,40.87 500.12,42.58 498.02,44.29 495.91,46.01 493.81,47.72 491.70,49.44 489.60,51.16 487.50,52.88 485.39,54.60 483.29,56.32 481.18,58.04 479.08,59.76 476.97,61.49 474.87,63.22 472.77,64.95 470.66,66.68 468.56,68.41 466.45,70.14 464.35,71.88 462.24,73.62 460.14,75.36 458.04,77.11 455.93,78.85 453.83,80.60 451.72,82.35 449.62,84.11 447.51,85.87 445.41,87.63 443.31,89.39 441.20,91.16 439.10,92.93 436.99,94.71 434.89,96.49 432.78,98.27 430.68,100.05 428.58,101.84 426.47,103.63 424.37,105.43 422.26,107.23 420.16,109.03 418.05,110.83 415.95,112.64 413.85,114.45 411.74,116.27 409.64,118.08 407.53,119.90 405.43,121.73 403.32,123.55 401.22,125.38 399.12,127.20 397.01,129.04 394.91,130.87 392.80,132.70 390.70,134.54 388.59,136.38 386.49,138.22 384.39,140.06 382.28,141.90 380.18,143.74 378.07,145.59 375.97,147.43 373.86,149.28 371.76,151.13 369.66,152.98 367.55,154.83 365.45,156.68 363.34,158.53 361.24,160.38 359.13,162.23 "
       style="stroke-width: 2.13; stroke: none; stroke-linecap: butt;"
       id="polyline48" />
    <polyline
       points="359.13,158.42 361.24,156.64 363.34,154.86 365.45,153.08 367.55,151.30 369.66,149.51 371.76,147.73 373.86,145.95 375.97,144.17 378.07,142.39 380.18,140.61 382.28,138.82 384.39,137.04 386.49,135.26 388.59,133.48 390.70,131.70 392.80,129.92 394.91,128.13 397.01,126.35 399.12,124.57 401.22,122.79 403.32,121.01 405.43,119.22 407.53,117.44 409.64,115.66 411.74,113.88 413.85,112.10 415.95,110.32 418.05,108.53 420.16,106.75 422.26,104.97 424.37,103.19 426.47,101.41 428.58,99.63 430.68,97.84 432.78,96.06 434.89,94.28 436.99,92.50 439.10,90.72 441.20,88.94 443.31,87.15 445.41,85.37 447.51,83.59 449.62,81.81 451.72,80.03 453.83,78.24 455.93,76.46 458.04,74.68 460.14,72.90 462.24,71.12 464.35,69.34 466.45,67.55 468.56,65.77 470.66,63.99 472.77,62.21 474.87,60.43 476.97,58.65 479.08,56.86 481.18,55.08 483.29,53.30 485.39,51.52 487.50,49.74 489.60,47.95 491.70,46.17 493.81,44.39 495.91,42.61 498.02,40.83 500.12,39.05 502.23,37.26 504.33,35.48 506.43,33.70 508.54,31.92 510.64,30.14 512.75,28.36 514.85,26.57 516.96,24.79 519.06,23.01 521.16,21.23 523.27,19.45 525.37,17.67 "
       style="stroke-width: 2.13; stroke: #3366FF; stroke-linecap: butt;"
       id="polyline49" />
    <circle
       cx="359.13"
       cy="154.16"
       r="1.95"
       style="stroke-width: 0.71; fill: #000000;"
       id="circle49" />
    <circle
       cx="372.44"
       cy="145.01"
       r="1.95"
       style="stroke-width: 0.71; fill: #000000;"
       id="circle50" />
    <circle
       cx="386.82"
       cy="135.32"
       r="1.95"
       style="stroke-width: 0.71; fill: #000000;"
       id="circle51" />
    <circle
       cx="402.34"
       cy="123.50"
       r="1.95"
       style="stroke-width: 0.71; fill: #000000;"
       id="circle52" />
    <circle
       cx="419.11"
       cy="110.38"
       r="1.95"
       style="stroke-width: 0.71; fill: #000000;"
       id="circle53" />
    <circle
       cx="437.22"
       cy="95.46"
       r="1.95"
       style="stroke-width: 0.71; fill: #000000;"
       id="circle54" />
    <circle
       cx="456.78"
       cy="78.18"
       r="1.95"
       style="stroke-width: 0.71; fill: #000000;"
       id="circle55" />
    <circle
       cx="477.91"
       cy="59.12"
       r="1.95"
       style="stroke-width: 0.71; fill: #000000;"
       id="circle56" />
    <circle
       cx="500.73"
       cy="38.06"
       r="1.95"
       style="stroke-width: 0.71; fill: #000000;"
       id="circle57" />
    <circle
       cx="525.37"
       cy="12.94"
       r="1.95"
       style="stroke-width: 0.71; fill: #000000;"
       id="circle58" />
    <text
       x="354.53"
       y="24.72"
       style="font-size: 11.04px; font-style: italic; font-family: &quot;Arial&quot;;"
       textLength="5.52px"
       lengthAdjust="spacingAndGlyphs"
       id="text58">y</text>
    <text
       x="360.04"
       y="24.72"
       style="font-size: 11.04px; font-family: &quot;Symbol&quot;;"
       textLength="2.76px"
       lengthAdjust="spacingAndGlyphs"
       id="text59" />
    <text
       x="362.80"
       y="24.72"
       style="font-size: 11.04px; font-family: &quot;Arial&quot;;"
       textLength="6.44px"
       lengthAdjust="spacingAndGlyphs"
       id="text60">=</text>
    <text
       x="369.24"
       y="24.72"
       style="font-size: 11.04px; font-family: &quot;Symbol&quot;;"
       textLength="2.76px"
       lengthAdjust="spacingAndGlyphs"
       id="text61" />
    <text
       x="372.00"
       y="24.72"
       style="font-size: 11.04px; font-family: &quot;Symbol&quot;;"
       textLength="6.06px"
       lengthAdjust="spacingAndGlyphs"
       id="text62">−</text>
    <text
       x="379.59"
       y="24.72"
       style="font-size: 11.04px; font-family: &quot;Arial&quot;;"
       textLength="27.60px"
       lengthAdjust="spacingAndGlyphs"
       id="text63">0.027</text>
    <text
       x="409.23"
       y="24.72"
       style="font-size: 11.04px; font-family: &quot;Symbol&quot;;"
       textLength="6.06px"
       lengthAdjust="spacingAndGlyphs"
       id="text64">+</text>
    <text
       x="417.33"
       y="24.72"
       style="font-size: 11.04px; font-family: &quot;Arial&quot;;"
       textLength="27.60px"
       lengthAdjust="spacingAndGlyphs"
       id="text65">0.024</text>
    <text
       x="444.93"
       y="24.72"
       style="font-size: 11.04px; font-family: &quot;Symbol&quot;;"
       textLength="2.76px"
       lengthAdjust="spacingAndGlyphs"
       id="text66" />
    <text
       x="447.69"
       y="24.72"
       style="font-size: 11.04px; font-style: italic; font-family: &quot;Arial&quot;;"
       textLength="5.52px"
       lengthAdjust="spacingAndGlyphs"
       id="text67">x</text>
  </g>
  <g
     clip-path="url(#cpMC4wMHw1NzYuMDB8MC4wMHw0MDMuMjA=)"
     id="g85">
    <polyline
       points="344.24,169.70 344.24,5.48 "
       style="stroke-width: 1.07; stroke-linecap: butt;"
       id="polyline67" />
    <text
       x="339.31"
       y="160.92"
       text-anchor="end"
       style="font-size: 8.80px;fill: #4D4D4D; font-family: &quot;Arial&quot;;"
       textLength="17.13px"
       lengthAdjust="spacingAndGlyphs"
       id="text68">0.04</text>
    <text
       x="339.31"
       y="119.02"
       text-anchor="end"
       style="font-size: 8.80px;fill: #4D4D4D; font-family: &quot;Arial&quot;;"
       textLength="17.13px"
       lengthAdjust="spacingAndGlyphs"
       id="text69">0.06</text>
    <text
       x="339.31"
       y="77.12"
       text-anchor="end"
       style="font-size: 8.80px;fill: #4D4D4D; font-family: &quot;Arial&quot;;"
       textLength="17.13px"
       lengthAdjust="spacingAndGlyphs"
       id="text70">0.08</text>
    <text
       x="339.31"
       y="35.22"
       text-anchor="end"
       style="font-size: 8.80px;fill: #4D4D4D; font-family: &quot;Arial&quot;;"
       textLength="17.13px"
       lengthAdjust="spacingAndGlyphs"
       id="text71">0.10</text>
    <polyline
       points="341.50,157.77 344.24,157.77 "
       style="stroke-width: 1.07; stroke: #333333; stroke-linecap: butt;"
       id="polyline71" />
    <polyline
       points="341.50,115.87 344.24,115.87 "
       style="stroke-width: 1.07; stroke: #333333; stroke-linecap: butt;"
       id="polyline72" />
    <polyline
       points="341.50,73.97 344.24,73.97 "
       style="stroke-width: 1.07; stroke: #333333; stroke-linecap: butt;"
       id="polyline73" />
    <polyline
       points="341.50,32.07 344.24,32.07 "
       style="stroke-width: 1.07; stroke: #333333; stroke-linecap: butt;"
       id="polyline74" />
    <polyline
       points="344.24,169.70 570.52,169.70 "
       style="stroke-width: 1.07; stroke-linecap: butt;"
       id="polyline75" />
    <polyline
       points="369.22,172.44 369.22,169.70 "
       style="stroke-width: 1.07; stroke: #333333; stroke-linecap: butt;"
       id="polyline76" />
    <polyline
       points="427.99,172.44 427.99,169.70 "
       style="stroke-width: 1.07; stroke: #333333; stroke-linecap: butt;"
       id="polyline77" />
    <polyline
       points="486.77,172.44 486.77,169.70 "
       style="stroke-width: 1.07; stroke: #333333; stroke-linecap: butt;"
       id="polyline78" />
    <polyline
       points="545.54,172.44 545.54,169.70 "
       style="stroke-width: 1.07; stroke: #333333; stroke-linecap: butt;"
       id="polyline79" />
    <text
       x="369.22"
       y="180.93"
       text-anchor="middle"
       style="font-size: 8.80px;fill: #4D4D4D; font-family: &quot;Arial&quot;;"
       textLength="4.90px"
       lengthAdjust="spacingAndGlyphs"
       id="text79">3</text>
    <text
       x="427.99"
       y="180.93"
       text-anchor="middle"
       style="font-size: 8.80px;fill: #4D4D4D; font-family: &quot;Arial&quot;;"
       textLength="4.90px"
       lengthAdjust="spacingAndGlyphs"
       id="text80">4</text>
    <text
       x="486.77"
       y="180.93"
       text-anchor="middle"
       style="font-size: 8.80px;fill: #4D4D4D; font-family: &quot;Arial&quot;;"
       textLength="4.90px"
       lengthAdjust="spacingAndGlyphs"
       id="text81">5</text>
    <text
       x="545.54"
       y="180.93"
       text-anchor="middle"
       style="font-size: 8.80px;fill: #4D4D4D; font-family: &quot;Arial&quot;;"
       textLength="4.90px"
       lengthAdjust="spacingAndGlyphs"
       id="text82">6</text>
    <text
       x="457.38"
       y="193.7"
       text-anchor="middle"
       style="font-size:11px;font-family:Arial"
       textLength="90.150002"
       lengthAdjust="spacingAndGlyphs"
       id="text83">Total [Mn<tspan
   style="font-size:65%;baseline-shift:super"
   id="tspan176">2+</tspan>] (mM)</text>
    <text
       transform="rotate(-90,194.48,-106.89)"
       text-anchor="middle"
       style="font-size:11px;font-family:Arial"
       textLength="88.32"
       lengthAdjust="spacingAndGlyphs"
       id="text84">Free [Mn<tspan
   style="font-size:65%;baseline-shift:super"
   id="tspan175">2+</tspan>] (mM)</text>
    <text
       x="293.05"
       y="15.11"
       style="font-size: 14.00px; font-weight: bold; font-family: &quot;Arial&quot;;"
       textLength="10.11px"
       lengthAdjust="spacingAndGlyphs"
       id="text85">B</text>
  </g>
  <defs
     id="defs85">
    <clipPath
       id="cpMC4wMHwyODguMDB8MjAxLjYwfDQwMy4yMA==">
      <rect
         x="0.00"
         y="201.60"
         width="288.00"
         height="201.60"
         id="rect85" />
    </clipPath>
  </defs>
  <g
     clip-path="url(#cpMC4wMHwyODguMDB8MjAxLjYwfDQwMy4yMA==)"
     id="g86">
    <rect
       x="-0.000000000000032"
       y="201.60"
       width="288.00"
       height="201.60"
       style="stroke-width: 1.07; stroke: #FFFFFF; fill: #FFFFFF;"
       id="rect86" />
  </g>
  <g
     clip-path="url(#cpMC4wMHw1NzYuMDB8MC4wMHw0MDMuMjA=)"
     id="g87" />
  <defs
     id="defs87">
    <clipPath
       id="cpNTYuMjR8MjgyLjUyfDIwNy4wOHwzNzEuMzA=">
      <rect
         x="56.24"
         y="207.08"
         width="226.28"
         height="164.22"
         id="rect87" />
    </clipPath>
  </defs>
  <g
     clip-path="url(#cpNTYuMjR8MjgyLjUyfDIwNy4wOHwzNzEuMzA=)"
     id="g112">
    <rect
       x="56.24"
       y="207.08"
       width="226.28"
       height="164.22"
       style="stroke-width: 1.07; stroke: none; fill: #FFFFFF;"
       id="rect88" />
    <polygon
       points="66.53,357.44 69.13,355.70 71.73,353.97 74.34,352.23 76.94,350.49 79.54,348.74 82.15,347.00 84.75,345.26 87.36,343.52 89.96,341.77 92.56,340.03 95.17,338.28 97.77,336.53 100.38,334.78 102.98,333.03 105.58,331.28 108.19,329.53 110.79,327.78 113.40,326.02 116.00,324.27 118.60,322.51 121.21,320.75 123.81,318.98 126.42,317.22 129.02,315.45 131.62,313.68 134.23,311.91 136.83,310.14 139.44,308.36 142.04,306.59 144.64,304.80 147.25,303.02 149.85,301.23 152.45,299.44 155.06,297.65 157.66,295.86 160.27,294.06 162.87,292.26 165.47,290.45 168.08,288.65 170.68,286.84 173.29,285.03 175.89,283.21 178.49,281.39 181.10,279.57 183.70,277.75 186.31,275.92 188.91,274.10 191.51,272.27 194.12,270.44 196.72,268.60 199.33,266.77 201.93,264.93 204.53,263.09 207.14,261.25 209.74,259.41 212.34,257.56 214.95,255.72 217.55,253.87 220.16,252.02 222.76,250.18 225.36,248.33 227.97,246.48 230.57,244.62 233.18,242.77 235.78,240.92 238.38,239.06 240.99,237.21 243.59,235.35 246.20,233.50 248.80,231.64 251.40,229.78 254.01,227.92 256.61,226.06 259.22,224.21 261.82,222.35 264.42,220.49 267.03,218.62 269.63,216.76 272.24,214.90 272.24,222.29 269.63,224.02 267.03,225.76 264.42,227.49 261.82,229.23 259.22,230.96 256.61,232.70 254.01,234.44 251.40,236.18 248.80,237.91 246.20,239.65 243.59,241.39 240.99,243.13 238.38,244.87 235.78,246.62 233.18,248.36 230.57,250.10 227.97,251.85 225.36,253.59 222.76,255.34 220.16,257.09 217.55,258.83 214.95,260.58 212.34,262.33 209.74,264.09 207.14,265.84 204.53,267.60 201.93,269.35 199.33,271.11 196.72,272.87 194.12,274.63 191.51,276.40 188.91,278.16 186.31,279.93 183.70,281.70 181.10,283.48 178.49,285.25 175.89,287.03 173.29,288.81 170.68,290.60 168.08,292.38 165.47,294.17 162.87,295.96 160.27,297.76 157.66,299.56 155.06,301.36 152.45,303.16 149.85,304.97 147.25,306.78 144.64,308.59 142.04,310.40 139.44,312.22 136.83,314.04 134.23,315.87 131.62,317.69 129.02,319.52 126.42,321.35 123.81,323.18 121.21,325.01 118.60,326.85 116.00,328.69 113.40,330.52 110.79,332.36 108.19,334.21 105.58,336.05 102.98,337.90 100.38,339.74 97.77,341.59 95.17,343.44 92.56,345.29 89.96,347.14 87.36,348.99 84.75,350.84 82.15,352.70 79.54,354.55 76.94,356.41 74.34,358.26 71.73,360.12 69.13,361.97 66.53,363.83 "
       style="stroke-width: 0.00; stroke: none; stroke-linecap: butt; fill: #999999; fill-opacity: 0.40;"
       id="polygon88" />
    <polyline
       points="66.53,357.44 69.13,355.70 71.73,353.97 74.34,352.23 76.94,350.49 79.54,348.74 82.15,347.00 84.75,345.26 87.36,343.52 89.96,341.77 92.56,340.03 95.17,338.28 97.77,336.53 100.38,334.78 102.98,333.03 105.58,331.28 108.19,329.53 110.79,327.78 113.40,326.02 116.00,324.27 118.60,322.51 121.21,320.75 123.81,318.98 126.42,317.22 129.02,315.45 131.62,313.68 134.23,311.91 136.83,310.14 139.44,308.36 142.04,306.59 144.64,304.80 147.25,303.02 149.85,301.23 152.45,299.44 155.06,297.65 157.66,295.86 160.27,294.06 162.87,292.26 165.47,290.45 168.08,288.65 170.68,286.84 173.29,285.03 175.89,283.21 178.49,281.39 181.10,279.57 183.70,277.75 186.31,275.92 188.91,274.10 191.51,272.27 194.12,270.44 196.72,268.60 199.33,266.77 201.93,264.93 204.53,263.09 207.14,261.25 209.74,259.41 212.34,257.56 214.95,255.72 217.55,253.87 220.16,252.02 222.76,250.18 225.36,248.33 227.97,246.48 230.57,244.62 233.18,242.77 235.78,240.92 238.38,239.06 240.99,237.21 243.59,235.35 246.20,233.50 248.80,231.64 251.40,229.78 254.01,227.92 256.61,226.06 259.22,224.21 261.82,222.35 264.42,220.49 267.03,218.62 269.63,216.76 272.24,214.90 "
       style="stroke-width: 2.13; stroke: none; stroke-linecap: butt;"
       id="polyline88" />
    <polyline
       points="272.24,222.29 269.63,224.02 267.03,225.76 264.42,227.49 261.82,229.23 259.22,230.96 256.61,232.70 254.01,234.44 251.40,236.18 248.80,237.91 246.20,239.65 243.59,241.39 240.99,243.13 238.38,244.87 235.78,246.62 233.18,248.36 230.57,250.10 227.97,251.85 225.36,253.59 222.76,255.34 220.16,257.09 217.55,258.83 214.95,260.58 212.34,262.33 209.74,264.09 207.14,265.84 204.53,267.60 201.93,269.35 199.33,271.11 196.72,272.87 194.12,274.63 191.51,276.40 188.91,278.16 186.31,279.93 183.70,281.70 181.10,283.48 178.49,285.25 175.89,287.03 173.29,288.81 170.68,290.60 168.08,292.38 165.47,294.17 162.87,295.96 160.27,297.76 157.66,299.56 155.06,301.36 152.45,303.16 149.85,304.97 147.25,306.78 144.64,308.59 142.04,310.40 139.44,312.22 136.83,314.04 134.23,315.87 131.62,317.69 129.02,319.52 126.42,321.35 123.81,323.18 121.21,325.01 118.60,326.85 116.00,328.69 113.40,330.52 110.79,332.36 108.19,334.21 105.58,336.05 102.98,337.90 100.38,339.74 97.77,341.59 95.17,343.44 92.56,345.29 89.96,347.14 87.36,348.99 84.75,350.84 82.15,352.70 79.54,354.55 76.94,356.41 74.34,358.26 71.73,360.12 69.13,361.97 66.53,363.83 "
       style="stroke-width: 2.13; stroke: none; stroke-linecap: butt;"
       id="polyline89" />
    <polyline
       points="66.53,360.64 69.13,358.84 71.73,357.04 74.34,355.24 76.94,353.45 79.54,351.65 82.15,349.85 84.75,348.05 87.36,346.25 89.96,344.46 92.56,342.66 95.17,340.86 97.77,339.06 100.38,337.26 102.98,335.47 105.58,333.67 108.19,331.87 110.79,330.07 113.40,328.27 116.00,326.48 118.60,324.68 121.21,322.88 123.81,321.08 126.42,319.28 129.02,317.49 131.62,315.69 134.23,313.89 136.83,312.09 139.44,310.29 142.04,308.50 144.64,306.70 147.25,304.90 149.85,303.10 152.45,301.30 155.06,299.50 157.66,297.71 160.27,295.91 162.87,294.11 165.47,292.31 168.08,290.51 170.68,288.72 173.29,286.92 175.89,285.12 178.49,283.32 181.10,281.52 183.70,279.73 186.31,277.93 188.91,276.13 191.51,274.33 194.12,272.53 196.72,270.74 199.33,268.94 201.93,267.14 204.53,265.34 207.14,263.54 209.74,261.75 212.34,259.95 214.95,258.15 217.55,256.35 220.16,254.55 222.76,252.76 225.36,250.96 227.97,249.16 230.57,247.36 233.18,245.56 235.78,243.77 238.38,241.97 240.99,240.17 243.59,238.37 246.20,236.57 248.80,234.78 251.40,232.98 254.01,231.18 256.61,229.38 259.22,227.58 261.82,225.79 264.42,223.99 267.03,222.19 269.63,220.39 272.24,218.59 "
       style="stroke-width: 2.13; stroke: #3366FF; stroke-linecap: butt;"
       id="polyline90" />
    <circle
       cx="66.53"
       cy="357.48"
       r="1.95"
       style="stroke-width: 0.71; fill: #000000;"
       id="circle90" />
    <circle
       cx="82.99"
       cy="347.76"
       r="1.95"
       style="stroke-width: 0.71; fill: #000000;"
       id="circle91" />
    <circle
       cx="100.78"
       cy="336.92"
       r="1.95"
       style="stroke-width: 0.71; fill: #000000;"
       id="circle92" />
    <circle
       cx="119.99"
       cy="324.65"
       r="1.95"
       style="stroke-width: 0.71; fill: #000000;"
       id="circle93" />
    <circle
       cx="140.74"
       cy="311.14"
       r="1.95"
       style="stroke-width: 0.71; fill: #000000;"
       id="circle94" />
    <circle
       cx="163.15"
       cy="296.22"
       r="1.95"
       style="stroke-width: 0.71; fill: #000000;"
       id="circle95" />
    <circle
       cx="187.36"
       cy="279.76"
       r="1.95"
       style="stroke-width: 0.71; fill: #000000;"
       id="circle96" />
    <circle
       cx="213.50"
       cy="261.53"
       r="1.95"
       style="stroke-width: 0.71; fill: #000000;"
       id="circle97" />
    <circle
       cx="241.74"
       cy="238.50"
       r="1.95"
       style="stroke-width: 0.71; fill: #000000;"
       id="circle98" />
    <circle
       cx="272.24"
       cy="214.54"
       r="1.95"
       style="stroke-width: 0.71; fill: #000000;"
       id="circle99" />
    <text
       x="66.53"
       y="230.59"
       style="font-size: 11.04px; font-style: italic; font-family: &quot;Arial&quot;;"
       textLength="5.52px"
       lengthAdjust="spacingAndGlyphs"
       id="text99">y</text>
    <text
       x="72.04"
       y="230.59"
       style="font-size: 11.04px; font-family: &quot;Symbol&quot;;"
       textLength="2.76px"
       lengthAdjust="spacingAndGlyphs"
       id="text100" />
    <text
       x="74.80"
       y="230.59"
       style="font-size: 11.04px; font-family: &quot;Arial&quot;;"
       textLength="6.44px"
       lengthAdjust="spacingAndGlyphs"
       id="text101">=</text>
    <text
       x="81.24"
       y="230.59"
       style="font-size: 11.04px; font-family: &quot;Symbol&quot;;"
       textLength="2.76px"
       lengthAdjust="spacingAndGlyphs"
       id="text102" />
    <text
       x="84.00"
       y="230.59"
       style="font-size: 11.04px; font-family: &quot;Symbol&quot;;"
       textLength="6.06px"
       lengthAdjust="spacingAndGlyphs"
       id="text103">−</text>
    <text
       x="91.59"
       y="230.59"
       style="font-size: 11.04px; font-family: &quot;Arial&quot;;"
       textLength="15.34px"
       lengthAdjust="spacingAndGlyphs"
       id="text104">3.4</text>
    <text
       x="108.96"
       y="230.59"
       style="font-size: 11.04px; font-family: &quot;Symbol&quot;;"
       textLength="6.06px"
       lengthAdjust="spacingAndGlyphs"
       id="text105">×</text>
    <text
       x="117.06"
       y="230.59"
       style="font-size: 11.04px; font-family: &quot;Arial&quot;;"
       textLength="12.27px"
       lengthAdjust="spacingAndGlyphs"
       id="text106">10</text>
    <text
       x="129.33"
       y="225.11"
       style="font-size: 7.73px; font-family: &quot;Symbol&quot;;"
       textLength="4.23px"
       lengthAdjust="spacingAndGlyphs"
       id="text107">−</text>
    <text
       x="133.56"
       y="225.11"
       style="font-size: 7.73px; font-family: &quot;Arial&quot;;"
       textLength="4.29px"
       lengthAdjust="spacingAndGlyphs"
       id="text108">5</text>
    <text
       x="139.90"
       y="230.59"
       style="font-size: 11.04px; font-family: &quot;Symbol&quot;;"
       textLength="6.06px"
       lengthAdjust="spacingAndGlyphs"
       id="text109">+</text>
    <text
       x="147.99"
       y="230.59"
       style="font-size: 11.04px; font-family: &quot;Arial&quot;;"
       textLength="33.74px"
       lengthAdjust="spacingAndGlyphs"
       id="text110">0.0028</text>
    <text
       x="181.73"
       y="230.59"
       style="font-size: 11.04px; font-family: &quot;Symbol&quot;;"
       textLength="2.76px"
       lengthAdjust="spacingAndGlyphs"
       id="text111" />
    <text
       x="184.49"
       y="230.59"
       style="font-size: 11.04px; font-style: italic; font-family: &quot;Arial&quot;;"
       textLength="5.52px"
       lengthAdjust="spacingAndGlyphs"
       id="text112">x</text>
  </g>
  <g
     clip-path="url(#cpMC4wMHw1NzYuMDB8MC4wMHw0MDMuMjA=)"
     id="g130">
    <polyline
       points="56.24,371.30 56.24,207.08 "
       style="stroke-width: 1.07; stroke-linecap: butt;"
       id="polyline112" />
    <text
       x="51.31"
       y="347.50"
       text-anchor="end"
       style="font-size: 8.80px;fill: #4D4D4D; font-family: &quot;Arial&quot;;"
       textLength="22.51px"
       lengthAdjust="spacingAndGlyphs"
       id="text113">5e-04</text>
    <text
       x="51.31"
       y="317.83"
       text-anchor="end"
       style="font-size: 8.80px;fill: #4D4D4D; font-family: &quot;Arial&quot;;"
       textLength="22.51px"
       lengthAdjust="spacingAndGlyphs"
       id="text114">6e-04</text>
    <text
       x="51.31"
       y="288.17"
       text-anchor="end"
       style="font-size: 8.80px;fill: #4D4D4D; font-family: &quot;Arial&quot;;"
       textLength="22.51px"
       lengthAdjust="spacingAndGlyphs"
       id="text115">7e-04</text>
    <text
       x="51.31"
       y="258.50"
       text-anchor="end"
       style="font-size: 8.80px;fill: #4D4D4D; font-family: &quot;Arial&quot;;"
       textLength="22.51px"
       lengthAdjust="spacingAndGlyphs"
       id="text116">8e-04</text>
    <text
       x="51.31"
       y="228.84"
       text-anchor="end"
       style="font-size: 8.80px;fill: #4D4D4D; font-family: &quot;Arial&quot;;"
       textLength="22.51px"
       lengthAdjust="spacingAndGlyphs"
       id="text117">9e-04</text>
    <polyline
       points="53.50,344.34 56.24,344.34 "
       style="stroke-width: 1.07; stroke: #333333; stroke-linecap: butt;"
       id="polyline117" />
    <polyline
       points="53.50,314.68 56.24,314.68 "
       style="stroke-width: 1.07; stroke: #333333; stroke-linecap: butt;"
       id="polyline118" />
    <polyline
       points="53.50,285.01 56.24,285.01 "
       style="stroke-width: 1.07; stroke: #333333; stroke-linecap: butt;"
       id="polyline119" />
    <polyline
       points="53.50,255.35 56.24,255.35 "
       style="stroke-width: 1.07; stroke: #333333; stroke-linecap: butt;"
       id="polyline120" />
    <polyline
       points="53.50,225.69 56.24,225.69 "
       style="stroke-width: 1.07; stroke: #333333; stroke-linecap: butt;"
       id="polyline121" />
    <polyline
       points="56.24,371.30 282.52,371.30 "
       style="stroke-width: 1.07; stroke-linecap: butt;"
       id="polyline122" />
    <polyline
       points="103.25,374.04 103.25,371.30 "
       style="stroke-width: 1.07; stroke: #333333; stroke-linecap: butt;"
       id="polyline123" />
    <polyline
       points="163.85,374.04 163.85,371.30 "
       style="stroke-width: 1.07; stroke: #333333; stroke-linecap: butt;"
       id="polyline124" />
    <polyline
       points="224.46,374.04 224.46,371.30 "
       style="stroke-width: 1.07; stroke: #333333; stroke-linecap: butt;"
       id="polyline125" />
    <text
       x="103.25"
       y="382.53"
       text-anchor="middle"
       style="font-size: 8.80px;fill: #4D4D4D; font-family: &quot;Arial&quot;;"
       textLength="17.13px"
       lengthAdjust="spacingAndGlyphs"
       id="text125">0.20</text>
    <text
       x="163.85"
       y="382.53"
       text-anchor="middle"
       style="font-size: 8.80px;fill: #4D4D4D; font-family: &quot;Arial&quot;;"
       textLength="17.13px"
       lengthAdjust="spacingAndGlyphs"
       id="text126">0.25</text>
    <text
       x="224.46"
       y="382.53"
       text-anchor="middle"
       style="font-size: 8.80px;fill: #4D4D4D; font-family: &quot;Arial&quot;;"
       textLength="17.13px"
       lengthAdjust="spacingAndGlyphs"
       id="text127">0.30</text>
    <text
       x="169.38"
       y="395.29999"
       text-anchor="middle"
       style="font-size:11px;font-family:Arial"
       textLength="87.699997"
       lengthAdjust="spacingAndGlyphs"
       id="text128">Total [Zn<tspan
   style="font-size:65%;baseline-shift:super"
   id="tspan179">2+</tspan>] (mM)</text>
    <text
       transform="rotate(-90,151.28,137.91)"
       text-anchor="middle"
       style="font-size:11px;font-family:Arial"
       textLength="85.870003"
       lengthAdjust="spacingAndGlyphs"
       id="text129">Free [Zn<tspan
   style="font-size:65%;baseline-shift:super"
   id="tspan174">2+</tspan>] (mM)</text>
    <text
       x="5.05"
       y="216.71"
       style="font-size: 14.00px; font-weight: bold; font-family: &quot;Arial&quot;;"
       textLength="10.11px"
       lengthAdjust="spacingAndGlyphs"
       id="text130">C</text>
  </g>
  <defs
     id="defs130">
    <clipPath
       id="cpMjg4LjAwfDU3Ni4wMHwyMDEuNjB8NDAzLjIw">
      <rect
         x="288.00"
         y="201.60"
         width="288.00"
         height="201.60"
         id="rect130" />
    </clipPath>
  </defs>
  <g
     clip-path="url(#cpMjg4LjAwfDU3Ni4wMHwyMDEuNjB8NDAzLjIw)"
     id="g131">
    <rect
       x="288.00"
       y="201.60"
       width="288.00"
       height="201.60"
       style="stroke-width: 1.07; stroke: #FFFFFF; fill: #FFFFFF;"
       id="rect131" />
  </g>
  <g
     clip-path="url(#cpMC4wMHw1NzYuMDB8MC4wMHw0MDMuMjA=)"
     id="g132" />
  <defs
     id="defs132">
    <clipPath
       id="cpMzQ0LjI0fDU3MC41MnwyMDcuMDh8MzcxLjMw">
      <rect
         x="344.24"
         y="207.08"
         width="226.28"
         height="164.22"
         id="rect132" />
    </clipPath>
  </defs>
  <g
     clip-path="url(#cpMzQ0LjI0fDU3MC41MnwyMDcuMDh8MzcxLjMw)"
     id="g156">
    <rect
       x="344.24"
       y="207.08"
       width="226.28"
       height="164.22"
       style="stroke-width: 1.07; stroke: none; fill: #FFFFFF;"
       id="rect133" />
    <polygon
       points="354.53,361.91 357.13,360.06 359.73,358.22 362.34,356.37 364.94,354.53 367.54,352.68 370.15,350.84 372.75,348.99 375.36,347.14 377.96,345.30 380.56,343.45 383.17,341.60 385.77,339.75 388.38,337.91 390.98,336.06 393.58,334.21 396.19,332.36 398.79,330.51 401.40,328.66 404.00,326.81 406.60,324.96 409.21,323.11 411.81,321.26 414.42,319.40 417.02,317.55 419.62,315.69 422.23,313.84 424.83,311.98 427.44,310.13 430.04,308.27 432.64,306.41 435.25,304.56 437.85,302.70 440.45,300.84 443.06,298.97 445.66,297.11 448.27,295.25 450.87,293.39 453.47,291.52 456.08,289.66 458.68,287.79 461.29,285.92 463.89,284.05 466.49,282.18 469.10,280.32 471.70,278.44 474.31,276.57 476.91,274.70 479.51,272.83 482.12,270.96 484.72,269.08 487.33,267.21 489.93,265.33 492.53,263.46 495.14,261.58 497.74,259.71 500.34,257.83 502.95,255.95 505.55,254.08 508.16,252.20 510.76,250.32 513.36,248.44 515.97,246.56 518.57,244.68 521.18,242.80 523.78,240.92 526.38,239.04 528.99,237.16 531.59,235.28 534.20,233.40 536.80,231.52 539.40,229.64 542.01,227.76 544.61,225.88 547.22,224.00 549.82,222.12 552.42,220.24 555.03,218.35 557.63,216.47 560.24,214.59 560.24,216.81 557.63,218.66 555.03,220.50 552.42,222.35 549.82,224.19 547.22,226.03 544.61,227.88 542.01,229.72 539.40,231.57 536.80,233.41 534.20,235.26 531.59,237.10 528.99,238.95 526.38,240.79 523.78,242.64 521.18,244.49 518.57,246.33 515.97,248.18 513.36,250.03 510.76,251.87 508.16,253.72 505.55,255.57 502.95,257.42 500.34,259.27 497.74,261.12 495.14,262.97 492.53,264.82 489.93,266.67 487.33,268.52 484.72,270.37 482.12,272.22 479.51,274.07 476.91,275.93 474.31,277.78 471.70,279.64 469.10,281.49 466.49,283.35 463.89,285.20 461.29,287.06 458.68,288.92 456.08,290.78 453.47,292.64 450.87,294.50 448.27,296.36 445.66,298.23 443.06,300.09 440.45,301.95 437.85,303.82 435.25,305.69 432.64,307.55 430.04,309.42 427.44,311.29 424.83,313.16 422.23,315.03 419.62,316.90 417.02,318.77 414.42,320.64 411.81,322.52 409.21,324.39 406.60,326.27 404.00,328.14 401.40,330.02 398.79,331.89 396.19,333.77 393.58,335.64 390.98,337.52 388.38,339.40 385.77,341.28 383.17,343.15 380.56,345.03 377.96,346.91 375.36,348.79 372.75,350.67 370.15,352.55 367.54,354.43 364.94,356.31 362.34,358.19 359.73,360.07 357.13,361.95 354.53,363.83 "
       style="stroke-width: 0.00; stroke: none; stroke-linecap: butt; fill: #999999; fill-opacity: 0.40;"
       id="polygon133" />
    <polyline
       points="354.53,361.91 357.13,360.06 359.73,358.22 362.34,356.37 364.94,354.53 367.54,352.68 370.15,350.84 372.75,348.99 375.36,347.14 377.96,345.30 380.56,343.45 383.17,341.60 385.77,339.75 388.38,337.91 390.98,336.06 393.58,334.21 396.19,332.36 398.79,330.51 401.40,328.66 404.00,326.81 406.60,324.96 409.21,323.11 411.81,321.26 414.42,319.40 417.02,317.55 419.62,315.69 422.23,313.84 424.83,311.98 427.44,310.13 430.04,308.27 432.64,306.41 435.25,304.56 437.85,302.70 440.45,300.84 443.06,298.97 445.66,297.11 448.27,295.25 450.87,293.39 453.47,291.52 456.08,289.66 458.68,287.79 461.29,285.92 463.89,284.05 466.49,282.18 469.10,280.32 471.70,278.44 474.31,276.57 476.91,274.70 479.51,272.83 482.12,270.96 484.72,269.08 487.33,267.21 489.93,265.33 492.53,263.46 495.14,261.58 497.74,259.71 500.34,257.83 502.95,255.95 505.55,254.08 508.16,252.20 510.76,250.32 513.36,248.44 515.97,246.56 518.57,244.68 521.18,242.80 523.78,240.92 526.38,239.04 528.99,237.16 531.59,235.28 534.20,233.40 536.80,231.52 539.40,229.64 542.01,227.76 544.61,225.88 547.22,224.00 549.82,222.12 552.42,220.24 555.03,218.35 557.63,216.47 560.24,214.59 "
       style="stroke-width: 2.13; stroke: none; stroke-linecap: butt;"
       id="polyline133" />
    <polyline
       points="560.24,216.81 557.63,218.66 555.03,220.50 552.42,222.35 549.82,224.19 547.22,226.03 544.61,227.88 542.01,229.72 539.40,231.57 536.80,233.41 534.20,235.26 531.59,237.10 528.99,238.95 526.38,240.79 523.78,242.64 521.18,244.49 518.57,246.33 515.97,248.18 513.36,250.03 510.76,251.87 508.16,253.72 505.55,255.57 502.95,257.42 500.34,259.27 497.74,261.12 495.14,262.97 492.53,264.82 489.93,266.67 487.33,268.52 484.72,270.37 482.12,272.22 479.51,274.07 476.91,275.93 474.31,277.78 471.70,279.64 469.10,281.49 466.49,283.35 463.89,285.20 461.29,287.06 458.68,288.92 456.08,290.78 453.47,292.64 450.87,294.50 448.27,296.36 445.66,298.23 443.06,300.09 440.45,301.95 437.85,303.82 435.25,305.69 432.64,307.55 430.04,309.42 427.44,311.29 424.83,313.16 422.23,315.03 419.62,316.90 417.02,318.77 414.42,320.64 411.81,322.52 409.21,324.39 406.60,326.27 404.00,328.14 401.40,330.02 398.79,331.89 396.19,333.77 393.58,335.64 390.98,337.52 388.38,339.40 385.77,341.28 383.17,343.15 380.56,345.03 377.96,346.91 375.36,348.79 372.75,350.67 370.15,352.55 367.54,354.43 364.94,356.31 362.34,358.19 359.73,360.07 357.13,361.95 354.53,363.83 "
       style="stroke-width: 2.13; stroke: none; stroke-linecap: butt;"
       id="polyline134" />
    <polyline
       points="354.53,362.87 357.13,361.01 359.73,359.14 362.34,357.28 364.94,355.42 367.54,353.56 370.15,351.69 372.75,349.83 375.36,347.97 377.96,346.10 380.56,344.24 383.17,342.38 385.77,340.52 388.38,338.65 390.98,336.79 393.58,334.93 396.19,333.06 398.79,331.20 401.40,329.34 404.00,327.48 406.60,325.61 409.21,323.75 411.81,321.89 414.42,320.02 417.02,318.16 419.62,316.30 422.23,314.44 424.83,312.57 427.44,310.71 430.04,308.85 432.64,306.98 435.25,305.12 437.85,303.26 440.45,301.39 443.06,299.53 445.66,297.67 448.27,295.81 450.87,293.94 453.47,292.08 456.08,290.22 458.68,288.35 461.29,286.49 463.89,284.63 466.49,282.77 469.10,280.90 471.70,279.04 474.31,277.18 476.91,275.31 479.51,273.45 482.12,271.59 484.72,269.73 487.33,267.86 489.93,266.00 492.53,264.14 495.14,262.27 497.74,260.41 500.34,258.55 502.95,256.69 505.55,254.82 508.16,252.96 510.76,251.10 513.36,249.23 515.97,247.37 518.57,245.51 521.18,243.65 523.78,241.78 526.38,239.92 528.99,238.06 531.59,236.19 534.20,234.33 536.80,232.47 539.40,230.61 542.01,228.74 544.61,226.88 547.22,225.02 549.82,223.15 552.42,221.29 555.03,219.43 557.63,217.56 560.24,215.70 "
       style="stroke-width: 2.13; stroke: #3366FF; stroke-linecap: butt;"
       id="polyline135" />
    <circle
       cx="354.53"
       cy="361.79"
       r="1.95"
       style="stroke-width: 0.71; fill: #000000;"
       id="circle135" />
    <circle
       cx="370.99"
       cy="350.60"
       r="1.95"
       style="stroke-width: 0.71; fill: #000000;"
       id="circle136" />
    <circle
       cx="388.78"
       cy="338.38"
       r="1.95"
       style="stroke-width: 0.71; fill: #000000;"
       id="circle137" />
    <circle
       cx="407.99"
       cy="325.03"
       r="1.95"
       style="stroke-width: 0.71; fill: #000000;"
       id="circle138" />
    <circle
       cx="428.74"
       cy="310.45"
       r="1.95"
       style="stroke-width: 0.71; fill: #000000;"
       id="circle139" />
    <circle
       cx="451.15"
       cy="294.52"
       r="1.95"
       style="stroke-width: 0.71; fill: #000000;"
       id="circle140" />
    <circle
       cx="475.36"
       cy="277.12"
       r="1.95"
       style="stroke-width: 0.71; fill: #000000;"
       id="circle141" />
    <circle
       cx="501.50"
       cy="258.09"
       r="1.95"
       style="stroke-width: 0.71; fill: #000000;"
       id="circle142" />
    <circle
       cx="529.74"
       cy="237.29"
       r="1.95"
       style="stroke-width: 0.71; fill: #000000;"
       id="circle143" />
    <circle
       cx="560.24"
       cy="214.54"
       r="1.95"
       style="stroke-width: 0.71; fill: #000000;"
       id="circle144" />
    <text
       x="354.53"
       y="230.59"
       style="font-size: 11.04px; font-style: italic; font-family: &quot;Arial&quot;;"
       textLength="5.52px"
       lengthAdjust="spacingAndGlyphs"
       id="text144">y</text>
    <text
       x="360.04"
       y="230.59"
       style="font-size: 11.04px; font-family: &quot;Symbol&quot;;"
       textLength="2.76px"
       lengthAdjust="spacingAndGlyphs"
       id="text145" />
    <text
       x="362.80"
       y="230.59"
       style="font-size: 11.04px; font-family: &quot;Arial&quot;;"
       textLength="6.44px"
       lengthAdjust="spacingAndGlyphs"
       id="text146">=</text>
    <text
       x="369.24"
       y="230.59"
       style="font-size: 11.04px; font-family: &quot;Symbol&quot;;"
       textLength="2.76px"
       lengthAdjust="spacingAndGlyphs"
       id="text147" />
    <text
       x="372.00"
       y="230.59"
       style="font-size: 11.04px; font-family: &quot;Arial&quot;;"
       textLength="15.34px"
       lengthAdjust="spacingAndGlyphs"
       id="text148">1.5</text>
    <text
       x="389.38"
       y="230.59"
       style="font-size: 11.04px; font-family: &quot;Symbol&quot;;"
       textLength="6.06px"
       lengthAdjust="spacingAndGlyphs"
       id="text149">×</text>
    <text
       x="397.47"
       y="230.59"
       style="font-size: 11.04px; font-family: &quot;Arial&quot;;"
       textLength="12.27px"
       lengthAdjust="spacingAndGlyphs"
       id="text150">10</text>
    <text
       x="409.74"
       y="225.11"
       style="font-size: 7.73px; font-family: &quot;Symbol&quot;;"
       textLength="4.23px"
       lengthAdjust="spacingAndGlyphs"
       id="text151">−</text>
    <text
       x="413.98"
       y="225.11"
       style="font-size: 7.73px; font-family: &quot;Arial&quot;;"
       textLength="4.29px"
       lengthAdjust="spacingAndGlyphs"
       id="text152">5</text>
    <text
       x="420.31"
       y="230.59"
       style="font-size: 11.04px; font-family: &quot;Symbol&quot;;"
       textLength="6.06px"
       lengthAdjust="spacingAndGlyphs"
       id="text153">+</text>
    <text
       x="428.41"
       y="230.59"
       style="font-size: 11.04px; font-family: &quot;Arial&quot;;"
       textLength="27.60px"
       lengthAdjust="spacingAndGlyphs"
       id="text154">0.076</text>
    <text
       x="456.01"
       y="230.59"
       style="font-size: 11.04px; font-family: &quot;Symbol&quot;;"
       textLength="2.76px"
       lengthAdjust="spacingAndGlyphs"
       id="text155" />
    <text
       x="458.77"
       y="230.59"
       style="font-size: 11.04px; font-style: italic; font-family: &quot;Arial&quot;;"
       textLength="5.52px"
       lengthAdjust="spacingAndGlyphs"
       id="text156">x</text>
  </g>
  <g
     clip-path="url(#cpMC4wMHw1NzYuMDB8MC4wMHw0MDMuMjA=)"
     id="g172">
    <polyline
       points="344.24,371.30 344.24,207.08 "
       style="stroke-width: 1.07; stroke-linecap: butt;"
       id="polyline156" />
    <text
       x="339.31"
       y="367.41"
       text-anchor="end"
       style="font-size: 8.80px;fill: #4D4D4D; font-family: &quot;Arial&quot;;"
       textLength="29.85px"
       lengthAdjust="spacingAndGlyphs"
       id="text157">2.0e-05</text>
    <text
       x="339.31"
       y="312.65"
       text-anchor="end"
       style="font-size: 8.80px;fill: #4D4D4D; font-family: &quot;Arial&quot;;"
       textLength="29.85px"
       lengthAdjust="spacingAndGlyphs"
       id="text158">2.2e-05</text>
    <text
       x="339.31"
       y="257.90"
       text-anchor="end"
       style="font-size: 8.80px;fill: #4D4D4D; font-family: &quot;Arial&quot;;"
       textLength="29.85px"
       lengthAdjust="spacingAndGlyphs"
       id="text159">2.4e-05</text>
    <polyline
       points="341.50,364.25 344.24,364.25 "
       style="stroke-width: 1.07; stroke: #333333; stroke-linecap: butt;"
       id="polyline159" />
    <polyline
       points="341.50,309.50 344.24,309.50 "
       style="stroke-width: 1.07; stroke: #333333; stroke-linecap: butt;"
       id="polyline160" />
    <polyline
       points="341.50,254.74 344.24,254.74 "
       style="stroke-width: 1.07; stroke: #333333; stroke-linecap: butt;"
       id="polyline161" />
    <polyline
       points="344.24,371.30 570.52,371.30 "
       style="stroke-width: 1.07; stroke-linecap: butt;"
       id="polyline162" />
    <polyline
       points="381.55,374.04 381.55,371.30 "
       style="stroke-width: 1.07; stroke: #333333; stroke-linecap: butt;"
       id="polyline163" />
    <polyline
       points="439.73,374.04 439.73,371.30 "
       style="stroke-width: 1.07; stroke: #333333; stroke-linecap: butt;"
       id="polyline164" />
    <polyline
       points="497.92,374.04 497.92,371.30 "
       style="stroke-width: 1.07; stroke: #333333; stroke-linecap: butt;"
       id="polyline165" />
    <polyline
       points="556.10,374.04 556.10,371.30 "
       style="stroke-width: 1.07; stroke: #333333; stroke-linecap: butt;"
       id="polyline166" />
    <text
       x="381.55"
       y="382.53"
       text-anchor="middle"
       style="font-size: 8.80px;fill: #4D4D4D; font-family: &quot;Arial&quot;;"
       textLength="31.82px"
       lengthAdjust="spacingAndGlyphs"
       id="text166">0.00008</text>
    <text
       x="439.73"
       y="382.53"
       text-anchor="middle"
       style="font-size: 8.80px;fill: #4D4D4D; font-family: &quot;Arial&quot;;"
       textLength="31.82px"
       lengthAdjust="spacingAndGlyphs"
       id="text167">0.00010</text>
    <text
       x="497.92"
       y="382.53"
       text-anchor="middle"
       style="font-size: 8.80px;fill: #4D4D4D; font-family: &quot;Arial&quot;;"
       textLength="31.82px"
       lengthAdjust="spacingAndGlyphs"
       id="text168">0.00012</text>
    <text
       x="556.10"
       y="382.53"
       text-anchor="middle"
       style="font-size: 8.80px;fill: #4D4D4D; font-family: &quot;Arial&quot;;"
       textLength="31.82px"
       lengthAdjust="spacingAndGlyphs"
       id="text169">0.00014</text>
    <text
       x="457.38"
       y="395.29999"
       text-anchor="middle"
       style="font-size:11px;font-family:Arial"
       textLength="88.93"
       lengthAdjust="spacingAndGlyphs"
       id="text170">Total [Ca<tspan
   style="font-size:65%;baseline-shift:super"
   id="tspan178">2+</tspan>] (mM)</text>
    <text
       transform="rotate(-90,295.28,-6.09)"
       text-anchor="middle"
       style="font-size:11px;font-family:Arial"
       textLength="87.099998"
       lengthAdjust="spacingAndGlyphs"
       id="text171">Free [Ca<tspan
   style="font-size:65%;baseline-shift:super"
   id="tspan177">2+</tspan>] (mM)</text>
    <text
       x="293.05"
       y="216.71"
       style="font-size: 14.00px; font-weight: bold; font-family: &quot;Arial&quot;;"
       textLength="10.11px"
       lengthAdjust="spacingAndGlyphs"
       id="text172">D</text>
  </g>
</svg>
